<?xml version="1.0" standalone="no"?>
<!DOCTYPE svg PUBLIC "-//W3C//DTD SVG 20010904//EN"
 "http://www.w3.org/TR/2001/REC-SVG-20010904/DTD/svg10.dtd">
<svg version="1.0" xmlns="http://www.w3.org/2000/svg"
 width="1792.000000pt" height="1024.000000pt" viewBox="0 0 1792.000000 1024.000000"
 preserveAspectRatio="xMidYMid meet">

<g transform="translate(0.000000,1024.000000) scale(0.100000,-0.100000)"
fill="#000000" stroke="none">
<path d="M5368 8311 l-33 -29 -1 -3299 c-2 -3588 -6 -3332 53 -3370 26 -17
208 -18 3629 -18 l3603 0 28 21 c15 11 34 32 40 45 10 19 13 725 13 3322 l0
3299 -29 29 -29 29 -3621 0 -3621 0 -32 -29z m3372 10 l25 -7 5 -519 5 -520 3
522 2 521 78 4 c42 2 182 2 310 0 l232 -3 1 -502 c1 -276 4 -512 7 -525 4 -13
5 213 4 503 l-4 525 244 -2 243 -3 6 -405 c6 -451 11 -489 83 -645 59 -128
172 -277 261 -344 76 -58 78 -51 3 13 -89 75 -165 173 -222 286 -37 74 -88
236 -102 323 -14 97 -19 518 -8 683 l7 89 216 -2 c119 -1 237 -2 264 -3 l47
-2 0 -87 c0 -142 51 -284 146 -404 80 -102 178 -156 329 -182 l70 -12 -70 -23
c-84 -28 -151 -60 -185 -90 -18 -15 -6 -11 40 13 36 19 116 51 177 71 l113 36
798 0 c439 0 801 -2 803 -4 2 -2 3 -105 1 -228 l-3 -223 -432 0 c-421 0 -434
-1 -517 -23 -47 -13 -106 -35 -132 -49 -65 -36 -163 -135 -204 -209 -50 -89
-41 -102 10 -14 77 132 182 214 329 256 80 24 88 24 516 24 l436 0 0 -285 0
-285 -674 0 -674 0 7 83 c3 45 8 93 11 107 3 14 -2 7 -9 -15 -8 -22 -15 -71
-15 -109 l-1 -69 -287 6 c-208 4 -303 10 -343 20 -72 20 -77 13 -8 -10 49 -16
126 -18 1020 -23 l968 -5 2 -190 c1 -104 1 -374 0 -600 0 -225 2 -767 5 -1202
l6 -793 -1790 0 -1791 0 -5 168 c-5 186 -7 194 -47 309 -37 105 -71 172 -128
253 -117 167 -236 268 -432 369 -188 97 -349 131 -614 131 l-169 0 6 1078 c4
592 7 1162 7 1266 l0 189 37 -6 c20 -4 85 -30 143 -59 91 -45 117 -64 196
-142 107 -108 187 -239 229 -381 26 -85 28 -106 35 -365 l7 -275 -1 285 -2
285 -31 92 c-18 50 -49 124 -70 163 -47 87 -154 215 -231 275 -65 51 -194 118
-264 136 l-48 13 0 51 c0 36 -3 46 -10 35 -5 -8 -10 -28 -10 -45 l0 -30 -700
-4 -700 -3 -16 38 c-29 67 -45 155 -44 238 0 45 0 94 0 109 0 19 3 26 11 21 9
-5 10 1 5 20 -7 30 0 33 24 11 16 -14 18 -14 24 0 3 9 2 14 -3 11 -5 -3 -14 1
-21 9 -9 10 -9 15 -1 15 6 0 11 -6 12 -12 0 -7 4 -4 9 7 7 16 9 17 9 3 1 -9 7
-19 14 -22 10 -5 10 -7 0 -12 -15 -7 -17 -40 -3 -49 12 -7 30 34 23 52 -3 6 4
16 14 22 15 7 22 5 32 -11 7 -11 10 -22 7 -25 -3 -3 -8 2 -12 11 -3 9 -11 16
-17 16 -6 0 -7 -3 -4 -7 4 -3 2 -12 -4 -20 -9 -10 -7 -13 7 -13 14 0 16 -2 6
-9 -10 -6 -9 -10 7 -14 12 -3 19 -2 16 3 -3 4 2 10 10 14 8 3 16 18 16 33 2
24 2 25 6 6 3 -16 11 -23 29 -23 27 0 33 17 9 26 -23 9 -18 23 7 16 16 -4 20
-1 16 9 -4 11 7 15 48 17 30 1 54 -1 54 -6 0 -5 -8 -9 -17 -9 -49 1 -73 -4
-73 -14 0 -6 7 -8 16 -5 8 3 24 1 36 -5 15 -8 24 -7 37 5 10 9 21 13 24 9 4
-3 7 -1 7 6 0 9 8 11 24 7 15 -4 26 -1 29 7 4 9 8 8 16 -3 14 -20 14 -26 -4
-44 -8 -8 -11 -17 -6 -20 5 -4 12 0 15 6 5 10 7 10 12 0 5 -10 10 -10 24 3 11
10 24 14 32 9 7 -5 32 -10 55 -12 38 -3 43 -1 43 17 0 15 -4 19 -17 14 -15 -6
-16 -5 -3 9 13 14 16 14 27 -1 6 -9 15 -12 19 -8 5 4 2 12 -6 17 -11 7 -6 10
18 10 20 0 35 -6 38 -15 7 -17 31 -20 36 -5 2 7 14 7 36 -1 18 -6 39 -8 48 -5
11 4 15 2 11 -8 -4 -10 -1 -13 9 -9 7 3 14 11 14 19 0 17 16 18 24 2 5 -10 7
-10 12 0 8 17 24 15 24 -3 0 -8 5 -15 10 -15 14 0 13 27 -2 32 -7 3 -9 12 -4
24 7 17 8 17 16 3 7 -11 21 -15 47 -14 21 2 32 1 26 -2 -7 -3 -13 -9 -13 -14
0 -12 37 -12 45 1 3 6 15 10 26 10 11 0 18 4 14 9 -3 5 -1 12 5 16 6 3 10 -4
11 -17 0 -22 1 -22 10 -3 8 17 9 16 6 -7 -5 -32 18 -39 26 -9 4 18 57 36 57
19 0 -11 53 2 62 15 3 6 8 0 10 -13 3 -27 28 -40 28 -16 0 10 9 16 22 16 12 0
32 10 45 22 20 19 25 20 33 8 7 -10 5 -16 -5 -18 -16 -4 -9 -33 11 -44 7 -5
10 -16 7 -27 -3 -10 0 -22 6 -25 7 -5 8 -1 5 9 -4 8 -1 21 4 28 7 8 7 18 2 27
-14 22 -12 33 5 27 11 -5 12 -1 5 18 -6 15 -6 27 0 30 6 4 10 30 10 60 0 57
16 84 23 38 3 -20 5 -13 7 20 2 26 3 53 4 60 1 9 80 13 346 17 542 8 653 8
680 1z m-3002 -42 c14 0 13 -2 -3 -9 -29 -12 -32 -12 -39 6 -3 8 -2 12 4 9 6
-3 11 2 11 12 1 17 2 17 6 1 2 -10 12 -18 21 -19z m5756 23 c2 -4 -7 -8 -22
-9 -24 -2 -24 -1 -7 7 11 5 21 9 22 9 1 1 4 -3 7 -7z m393 -9 c118 5 148 3
118 -4 -22 -6 -57 -8 -78 -6 -27 4 -40 1 -44 -9 -3 -9 -10 -11 -22 -5 -9 5
-38 7 -65 5 -26 -2 -57 1 -67 7 -15 7 -19 6 -19 -6 0 -8 -4 -15 -9 -15 -11 0
-24 31 -16 38 3 3 5 0 5 -7 0 -7 5 -9 10 -6 6 4 7 12 3 18 -4 7 0 6 10 -2 13
-10 50 -12 174 -8z m-6300 1 c-3 -3 -12 -4 -19 -1 -8 3 -5 6 6 6 11 1 17 -2
13 -5z m67 -24 c4 0 5 4 2 8 -3 5 1 9 9 9 14 0 19 -15 16 -43 -1 -7 8 -14 20
-17 17 -5 19 -9 10 -25 -8 -16 -7 -21 6 -26 13 -5 14 -9 4 -19 -9 -9 -16 -7
-31 13 -19 24 -19 24 -13 3 3 -13 9 -23 13 -23 4 0 5 -11 2 -25 -3 -19 0 -25
14 -25 16 0 17 2 4 10 -14 9 -7 15 14 11 5 -1 6 6 2 15 -4 11 -2 15 8 11 16
-7 12 16 -8 42 -8 11 -8 15 2 19 10 3 10 7 1 18 -9 12 -9 18 0 27 10 9 11 8 6
-4 -8 -21 6 -31 25 -18 13 8 13 10 0 19 -12 8 -10 10 10 8 14 -2 24 2 23 8 -1
6 5 11 12 11 11 0 12 -4 4 -14 -7 -8 -8 -13 -1 -13 5 0 13 -8 16 -17 6 -15 4
-14 -14 2 -18 16 -20 17 -14 2 5 -13 -1 -18 -25 -23 -31 -7 -37 -24 -11 -32 7
-3 10 0 7 5 -3 5 -1 10 6 11 7 0 23 3 37 6 14 4 18 3 10 0 -23 -11 -37 -28
-32 -42 4 -14 38 -16 47 -2 3 6 -2 10 -11 10 -30 0 -5 14 29 16 51 3 53 4 33
19 -11 8 -14 15 -7 15 7 0 9 4 6 10 -3 5 0 7 9 4 25 -9 28 -36 6 -51 -11 -8
-20 -18 -20 -24 0 -13 27 -12 32 2 2 7 13 6 33 -2 17 -7 41 -12 55 -11 23 0
23 0 3 -5 -30 -6 -29 -19 5 -48 16 -15 21 -24 13 -25 -8 0 -20 8 -28 18 -13
15 -14 14 -8 -12 4 -20 1 -35 -12 -50 -13 -14 -13 -17 -2 -8 9 6 19 9 22 6 3
-4 14 -4 23 0 13 5 14 9 4 21 -17 20 4 20 24 -1 9 -8 16 -12 16 -8 0 5 5 3 12
-4 8 -8 17 -8 31 0 17 8 19 8 14 -6 -3 -8 -2 -18 2 -21 5 -2 11 4 14 14 5 20
-28 70 -39 58 -4 -4 -2 -7 4 -7 18 0 14 -27 -4 -34 -12 -4 -15 -2 -11 9 4 8 1
17 -5 21 -7 4 -8 3 -4 -4 4 -7 1 -12 -8 -12 -26 0 -18 17 18 40 19 11 39 33
45 48 9 23 10 20 8 -27 -1 -36 2 -55 11 -58 7 -3 12 -1 11 4 -4 21 2 43 11 43
5 0 7 -14 3 -32 -3 -18 -3 -30 1 -27 12 11 18 159 6 159 -5 0 -10 8 -10 18 0
14 2 14 9 3 7 -11 11 -4 14 25 2 21 4 -58 5 -176 1 -118 7 -244 12 -280 14
-87 32 -163 42 -174 27 -32 9 -34 -422 -35 -236 0 -436 2 -445 5 -13 5 -15 41
-14 248 0 225 8 302 30 317 5 3 4 20 -1 39 -9 31 -3 60 7 33 2 -7 11 -9 19 -6
8 3 14 0 14 -6 0 -9 5 -9 21 -1 19 11 20 9 13 -25 -5 -27 -3 -35 7 -33 8 2 13
-4 13 -14 -1 -10 2 -15 8 -12 5 3 6 14 3 24 -4 12 0 20 13 24 28 9 24 37 -5
30 -24 -6 -33 11 -10 19 9 3 9 7 0 18 -8 10 -9 19 -1 29 9 13 9 13 5 0 -7 -24
53 -76 84 -72 15 2 33 -3 41 -11 13 -13 16 -13 26 4 7 10 12 27 11 36 0 11 -3
13 -6 6 -2 -7 -10 -13 -16 -13 -7 1 -2 9 11 20 12 10 18 21 13 24 -5 4 -17 -1
-25 -10 -15 -14 -16 -13 -16 11 0 17 -4 24 -12 19 -7 -5 -8 -3 -3 6 6 10 11
10 20 -3 7 -10 15 -17 19 -17z m5170 18 c-3 -4 -12 -8 -20 -8 -8 0 -13 4 -10
8 3 5 12 9 20 9 8 0 13 -4 10 -9z m106 -6 c-8 -3 -24 -9 -35 -15 -17 -9 -18
-8 -8 5 7 8 10 17 8 20 -3 3 7 3 22 0 17 -3 22 -7 13 -10z m127 -4 c-3 -8 -6
-5 -6 6 -1 11 2 17 5 13 3 -3 4 -12 1 -19z m208 12 c-4 -7 -65 -1 -65 6 0 3
15 4 34 2 19 -1 33 -5 31 -8z m138 3 c-7 -2 -21 -2 -30 0 -10 3 -4 5 12 5 17
0 24 -2 18 -5z m213 -8 c-24 -18 -33 -19 -42 -3 -5 7 -2 9 8 6 8 -4 21 -2 29
3 22 14 26 10 5 -6z m724 5 c0 -4 -58 -7 -130 -8 -71 0 -130 3 -130 7 0 5 59
8 130 8 72 1 130 -3 130 -7z m53 3 c-7 -2 -21 -2 -30 0 -10 3 -4 5 12 5 17 0
24 -2 18 -5z m102 -3 c7 -12 -2 -12 -30 0 -19 8 -19 9 2 9 12 1 25 -3 28 -9z
m-1487 -9 c11 -6 10 -10 -4 -15 -9 -3 -19 -4 -22 -1 -3 3 1 5 9 5 11 0 11 2
-1 10 -8 5 -10 10 -5 10 6 0 16 -4 23 -9z m-5551 -28 c-10 -23 -47 -33 -47
-12 0 6 7 9 15 5 13 -5 19 4 17 25 -1 3 5 6 13 6 10 0 11 -6 2 -24z m107 16
c-2 -4 2 -10 8 -12 8 -4 9 -6 2 -6 -6 -1 -17 5 -23 12 -8 10 -7 14 4 14 8 0
12 -4 9 -8z m5296 7 c0 -2 -7 -7 -16 -10 -8 -3 -12 -2 -9 4 6 10 25 14 25 6z
m610 -6 c-30 -3 -68 -3 -85 1 -19 4 1 7 55 7 78 -1 80 -1 30 -8z m440 0 c0 -5
-4 -10 -10 -10 -5 0 -10 5 -10 10 0 6 5 10 10 10 6 0 10 -4 10 -10z m-5793
-15 c0 -8 -4 -12 -9 -9 -5 3 -6 10 -3 15 9 13 12 11 12 -6z m4603 5 c0 -5 -2
-10 -4 -10 -2 0 -12 -3 -22 -7 -16 -6 -17 -5 -4 10 17 19 30 22 30 7z m1617
-12 c-3 -8 -6 -5 -6 6 -1 11 2 17 5 13 3 -3 4 -12 1 -19z m-1098 8 c-2 -2 -17
-6 -34 -10 -22 -5 -26 -4 -15 4 14 9 59 15 49 6z m-412 -27 c1 -10 -6 -24 -15
-31 -15 -12 -16 -11 -3 5 10 12 11 20 2 30 -8 10 -7 14 2 14 7 0 14 -8 14 -18z
m-4795 -14 c3 -13 1 -22 -3 -19 -9 5 -13 44 -5 44 2 0 6 -11 8 -25z m4588 15
c0 -5 -7 -10 -16 -10 -8 0 -12 5 -9 10 3 6 10 10 16 10 5 0 9 -4 9 -10z m444
-2 c-3 -4 -9 -8 -15 -8 -5 0 -9 4 -9 8 0 5 7 9 15 9 8 0 12 -4 9 -9z m68 -19
c5 -3 3 -9 -5 -12 -7 -3 -20 -1 -28 4 -10 6 -10 9 -1 9 6 0 12 8 13 18 0 13 2
14 6 2 3 -8 10 -18 15 -21z m-5035 -6 c-3 -3 -11 -2 -17 2 -9 6 -9 10 1 16 14
8 27 -7 16 -18z m60 21 c-3 -3 -12 -4 -19 -1 -8 3 -5 6 6 6 11 1 17 -2 13 -5z
m4363 -9 c0 -8 -4 -15 -10 -15 -5 0 -7 7 -4 15 4 8 8 15 10 15 2 0 4 -7 4 -15z
m50 -1 c-15 -17 -17 -17 -23 -1 -3 8 3 14 15 14 16 2 17 -1 8 -13z m-4715 -4
c3 -5 1 -10 -4 -10 -6 0 -11 5 -11 10 0 6 2 10 4 10 3 0 8 -4 11 -10z m100 0
c3 -6 -1 -7 -9 -4 -18 7 -21 14 -7 14 6 0 13 -4 16 -10z m4715 -5 c0 -8 -4
-15 -10 -15 -5 0 -7 7 -4 15 4 8 8 15 10 15 2 0 4 -7 4 -15z m280 5 c-8 -5
-11 -10 -6 -10 5 0 3 -7 -4 -15 -6 -8 -9 -24 -6 -37 6 -22 5 -22 -5 -3 -12 25
3 75 23 75 9 0 8 -3 -2 -10z m-195 -10 c-3 -5 -3 -10 2 -10 4 0 9 -15 10 -33
2 -30 1 -31 -12 -13 -16 21 -19 48 -8 59 10 10 15 8 8 -3z m445 0 c0 -5 -9
-10 -20 -10 -11 0 -20 5 -20 10 0 6 9 10 20 10 11 0 20 -4 20 -10z m-613 -32
c-3 -7 -5 -2 -5 12 0 14 2 19 5 13 2 -7 2 -19 0 -25z m265 13 c-9 -10 -21 -15
-26 -10 -12 11 -1 24 23 26 18 2 19 1 3 -16z m188 9 c0 -15 -14 -19 -27 -8
-11 9 -17 9 -24 -3 -7 -11 -9 -11 -9 4 0 13 7 17 30 15 17 -1 30 -5 30 -8z
m34 -32 c6 -4 -2 -7 -19 -7 -16 0 -24 3 -17 6 6 2 13 14 13 26 1 21 2 21 6 2
3 -11 10 -23 17 -27z m686 32 c0 -5 -2 -10 -4 -10 -3 0 -8 5 -11 10 -3 6 -1
10 4 10 6 0 11 -4 11 -10z m-5800 -4 c0 -3 -4 -8 -10 -11 -5 -3 -10 -1 -10 4
0 6 5 11 10 11 6 0 10 -2 10 -4z m159 -23 c2 -2 -5 -3 -17 -3 -14 0 -22 6 -22
16 0 14 3 15 18 3 9 -7 19 -15 21 -16z m4692 -5 c11 -21 11 -22 -4 -9 -10 7
-17 17 -17 22 0 15 9 10 21 -13z m-4761 8 c0 -3 -4 -8 -10 -11 -5 -3 -10 -1
-10 4 0 6 5 11 10 11 6 0 10 -2 10 -4z m1447 -38 c-3 -8 -6 -5 -6 6 -1 11 2
17 5 13 3 -3 4 -12 1 -19z m2997 6 c3 -8 2 -12 -4 -9 -6 3 -10 10 -10 16 0 14
7 11 14 -7z m66 6 c0 -5 -5 -10 -11 -10 -5 0 -7 5 -4 10 3 6 8 10 11 10 2 0 4
-4 4 -10z m90 -10 c0 -5 -9 -6 -20 -3 -11 3 -17 9 -15 14 7 10 35 1 35 -11z
m-4615 -10 c3 -5 -1 -10 -10 -10 -9 0 -13 5 -10 10 3 6 8 10 10 10 2 0 7 -4
10 -10z m60 -12 c-19 -11 -30 -5 -21 11 4 6 14 7 22 4 15 -5 14 -7 -1 -15z
m4617 2 c13 -11 16 -20 9 -20 -13 0 -41 24 -41 34 0 11 11 6 32 -14z m42 4 c3
-8 2 -12 -4 -9 -6 3 -10 10 -10 16 0 14 7 11 14 -7z m56 -4 c-6 -11 -15 -20
-20 -20 -16 0 -11 18 8 29 24 14 24 14 12 -9z m-4143 -12 c-3 -8 -6 -5 -6 6
-1 11 2 17 5 13 3 -3 4 -12 1 -19z m352 -12 c-12 -26 -29 -35 -29 -16 0 6 4
10 9 10 5 0 13 9 16 21 4 11 9 18 11 16 3 -2 -1 -16 -7 -31z m346 24 c3 -5 -1
-10 -10 -10 -9 0 -13 5 -10 10 3 6 8 10 10 10 2 0 7 -4 10 -10z m165 -5 c11
-13 10 -14 -4 -9 -9 3 -16 10 -16 15 0 13 6 11 20 -6z m-596 -10 c-7 -16 -24
-21 -24 -6 0 8 7 13 27 20 1 1 0 -6 -3 -14z m366 5 c13 -8 12 -10 -2 -10 -10
0 -18 -4 -18 -10 0 -5 -4 -10 -9 -10 -6 0 -9 9 -8 20 1 22 14 25 37 10z m155
0 c3 -5 -1 -10 -9 -10 -9 0 -16 5 -16 10 0 6 4 10 9 10 6 0 13 -4 16 -10z
m3168 3 c-7 -2 -21 -2 -30 0 -10 3 -4 5 12 5 17 0 24 -2 18 -5z m-3773 -24 c0
-5 -7 -9 -15 -9 -8 0 -15 7 -15 15 0 9 6 12 15 9 8 -4 15 -10 15 -15z m370 11
c0 -5 -4 -10 -10 -10 -5 0 -10 5 -10 10 0 6 5 10 10 10 6 0 10 -4 10 -10z
m3446 -27 c-8 -15 -15 -25 -16 -21 0 12 23 58 27 54 3 -2 -2 -17 -11 -33z
m254 22 c0 -8 -4 -15 -10 -15 -5 0 -7 7 -4 15 4 8 8 15 10 15 2 0 4 -7 4 -15z
m285 5 c3 -5 1 -10 -4 -10 -6 0 -11 5 -11 10 0 6 2 10 4 10 3 0 8 -4 11 -10z
m-4575 -10 c0 -5 -4 -10 -10 -10 -5 0 -10 5 -10 10 0 6 5 10 10 10 6 0 10 -4
10 -10z m148 -11 c7 -10 21 -16 33 -14 17 3 19 2 9 -10 -7 -8 -16 -12 -22 -9
-5 3 -15 0 -23 -6 -12 -10 -15 -9 -15 4 0 9 5 16 11 16 5 0 7 5 3 11 -3 6 -15
9 -25 6 -11 -3 -19 0 -19 7 0 19 33 15 48 -5z m97 11 c3 -5 1 -10 -4 -10 -6 0
-11 5 -11 10 0 6 2 10 4 10 3 0 8 -4 11 -10z m257 -12 c-6 -23 -14 -23 -29 1
-10 16 -9 19 11 17 16 -1 22 -6 18 -18z m3397 -53 l0 -20 -8 20 c-4 11 -11 34
-14 50 l-6 30 14 -30 c8 -16 14 -39 14 -50z m-4064 55 c3 -5 1 -10 -4 -10 -6
0 -11 5 -11 10 0 6 2 10 4 10 3 0 8 -4 11 -10z m599 -16 c-15 -8 -29 -12 -32
-9 -9 9 31 33 45 28 9 -4 5 -10 -13 -19z m-344 6 c0 -5 -4 -10 -10 -10 -5 0
-10 5 -10 10 0 6 5 10 10 10 6 0 10 -4 10 -10z m240 0 c0 -5 -4 -10 -10 -10
-5 0 -10 5 -10 10 0 6 5 10 10 10 6 0 10 -4 10 -10z m3910 0 c0 -5 -4 -10 -10
-10 -5 0 -10 5 -10 10 0 6 5 10 10 10 6 0 10 -4 10 -10z m-4140 -41 c0 -5 -4
-9 -10 -9 -5 0 -10 7 -10 16 0 8 5 12 10 9 6 -3 10 -10 10 -16z m4527 15 c-3
-3 -12 -4 -19 -1 -8 3 -5 6 6 6 11 1 17 -2 13 -5z m-630 -30 c-3 -3 -12 -4
-19 -1 -8 3 -5 6 6 6 11 1 17 -2 13 -5z m-67 -40 c0 -14 5 -35 11 -47 9 -19 8
-19 -9 2 -11 14 -17 31 -15 39 3 8 0 18 -8 23 -11 7 -11 9 4 9 12 0 17 -8 17
-26z m187 -26 c-3 -7 -5 -2 -5 12 0 14 2 19 5 13 2 -7 2 -19 0 -25z m1920
-140 c-2 -24 -4 -5 -4 42 0 47 2 66 4 43 2 -24 2 -62 0 -85z m-1361 17 c8 -27
18 -76 21 -107 l6 -58 -49 2 -49 1 43 4 c23 2 42 8 42 13 0 29 -32 167 -45
192 -19 39 -19 49 1 23 8 -11 22 -42 30 -70z m450 46 c-4 -6 -18 -11 -32 -11
-29 0 -35 36 -6 43 21 5 47 -17 38 -32z m-1119 -17 l3 -29 -15 25 c-18 31 -19
43 -3 38 6 -2 13 -17 15 -34z m373 -184 c0 -5 -5 -10 -11 -10 -5 0 -7 5 -4 10
3 6 8 10 11 10 2 0 4 -4 4 -10z m1660 0 c0 -6 -101 -9 -287 -8 l-288 3 285 5
c157 3 286 6 288 8 1 1 2 -2 2 -8z m-1620 -16 c0 -2 -7 -4 -15 -4 -8 0 -15 4
-15 10 0 5 7 7 15 4 8 -4 15 -8 15 -10z m138 9 c-21 -2 -55 -2 -75 0 -21 2 -4
4 37 4 41 0 58 -2 38 -4z m385 0 c-13 -2 -35 -2 -50 0 -16 2 -5 4 22 4 28 0
40 -2 28 -4z m-5274 -138 c57 -108 246 -272 406 -353 75 -37 207 -77 302 -91
86 -13 273 -15 273 -3 0 5 -64 12 -142 15 -250 10 -447 84 -632 237 -86 71
-196 203 -196 234 0 4 312 5 693 4 l692 -3 3 -1264 2 -1264 -46 7 c-53 7 -177
43 -216 63 l-28 13 -2 558 c-2 363 -6 557 -13 557 -7 0 -11 -191 -13 -547 -1
-302 -5 -548 -8 -548 -19 0 -130 84 -190 144 -101 102 -172 231 -216 396 -5
19 -13 172 -18 340 -5 168 -14 332 -20 365 -19 102 -82 219 -159 294 -37 36
-90 78 -117 93 -105 57 -118 58 -727 58 l-560 0 5 358 c3 197 8 364 12 370 5
9 123 12 449 12 l442 0 24 -45z m185 -725 c73 -12 187 -65 243 -114 70 -62
175 -242 172 -299 0 -7 -10 16 -23 50 -37 98 -86 171 -156 231 -105 89 -204
123 -395 135 -36 3 -29 4 25 5 41 1 102 -2 134 -8z m-289 -330 c3 -5 -1 -10
-9 -10 -9 0 -16 5 -16 10 0 6 4 10 9 10 6 0 13 -4 16 -10z m718 -152 c4 -29 3
-48 -3 -48 -6 0 -10 23 -10 52 0 62 5 60 13 -4z m9 -330 c4 -228 8 -273 26
-338 45 -162 117 -286 232 -400 70 -71 104 -95 188 -138 156 -81 213 -92 502
-102 320 -10 407 -28 585 -117 339 -169 545 -427 610 -763 8 -41 15 -132 15
-202 l0 -128 -455 0 -455 0 -4 23 c-3 12 -7 50 -10 84 -11 129 -107 312 -228
436 -70 71 -117 103 -228 157 -164 80 -238 90 -666 90 l-323 0 3 50 c2 28 0
50 -4 50 -4 0 -6 15 -3 33 2 17 -1 41 -6 52 -5 11 -19 43 -31 70 -42 97 -56
119 -110 174 -93 93 -138 125 -205 147 -100 33 -122 34 -552 34 l-433 0 0 220
0 220 363 2 c233 2 362 7 362 13 0 6 -129 11 -362 13 l-363 2 0 276 c0 167 4
273 9 269 5 -3 12 -1 16 5 3 5 -1 10 -9 10 -9 0 -16 5 -16 10 0 7 265 10 774
10 l774 0 4 -262z m-657 -820 c261 -82 415 -274 415 -520 l0 -68 -477 -2
c-375 -2 -293 -3 382 -8 944 -7 880 -3 1055 -70 241 -94 425 -305 486 -560 15
-66 18 -149 24 -685 6 -602 6 -611 29 -674 12 -36 31 -82 42 -102 10 -21 19
-41 19 -45 0 -3 -158 -4 -350 -2 -193 1 -350 0 -350 -4 0 -5 325 -8 723 -9
901 -1 1135 -8 1232 -39 174 -55 342 -167 439 -290 25 -32 46 -60 46 -62 0 -2
-30 -3 -67 -3 -457 -2 -745 -6 -739 -12 4 -4 191 -6 415 -4 l408 3 38 -79 c49
-103 72 -168 83 -236 l9 -55 -851 -6 c-468 -4 -1047 -6 -1286 -4 l-435 3 1
109 c1 60 -1 103 -5 97 -4 -7 -9 -53 -10 -104 -1 -58 -6 -94 -14 -100 -9 -6
-336 -4 -354 2 -2 1 -3 228 -3 506 l0 505 318 2 c215 1 276 4 188 8 l-129 5
-18 53 c-46 135 -161 272 -289 343 l-78 44 -5 48 c-4 27 -11 63 -16 80 -56
188 -89 248 -200 357 -119 118 -249 182 -421 210 -81 12 -881 13 -861 1 8 -5
197 -10 422 -10 445 -2 488 -6 627 -62 92 -37 151 -76 227 -154 97 -99 185
-273 200 -399 6 -47 5 -55 -7 -51 -9 4 -13 15 -11 29 5 25 -14 97 -43 161 -10
22 -17 43 -16 47 4 15 -124 193 -138 193 -8 0 -19 10 -25 22 -16 31 -57 61
-75 55 -8 -3 -12 -1 -8 3 7 8 -33 45 -49 45 -4 0 -40 13 -80 29 -62 26 -90 33
-175 45 -10 1 -21 5 -24 9 -4 4 -133 7 -286 7 -256 0 -279 -1 -286 -17 -8 -20
-32 -29 -32 -13 0 6 5 10 10 10 6 0 10 4 10 8 0 13 -128 13 -136 0 -4 -7 -10
-6 -16 3 -8 11 -9 10 -4 -3 3 -10 1 -18 -4 -18 -6 0 -10 -7 -10 -15 0 -8 -5
-15 -11 -15 -7 0 -20 -9 -30 -21 -9 -11 -21 -20 -25 -19 -5 1 -10 -3 -12 -9
-2 -6 1 -11 6 -11 13 0 22 -39 11 -46 -5 -3 -9 -15 -9 -27 0 -20 -1 -20 -13
-2 -8 10 -19 15 -25 11 -8 -5 -10 -2 -6 8 3 9 10 14 14 11 9 -6 35 23 27 31
-3 3 -15 0 -27 -6 -11 -6 -29 -9 -38 -7 -12 3 -11 5 5 6 13 0 22 7 20 14 -1 6
4 11 11 9 8 -1 12 3 9 10 -2 7 -13 12 -23 11 -10 -1 -14 0 -8 3 7 3 11 13 9
22 -1 9 0 11 2 4 3 -7 9 -9 15 -6 7 4 8 2 4 -4 -4 -7 -1 -12 8 -12 27 0 25 16
-5 44 -16 15 -29 23 -29 17 0 -6 -4 -11 -9 -11 -5 0 -7 9 -4 20 5 19 1 20 -93
19 -138 -1 -134 -2 -134 24 1 12 -2 329 -5 705 l-6 683 443 -4 c244 -2 452 -6
463 -9z m2843 -2302 c12 -43 44 -121 72 -174 l50 -95 -168 5 c-148 5 -176 9
-251 34 -99 33 -210 102 -266 166 -53 61 -120 173 -147 250 -20 55 -23 82 -23
218 1 118 4 166 17 200 24 67 51 120 60 120 4 0 8 8 8 18 1 23 22 50 37 45 6
-2 15 1 19 8 4 8 3 9 -4 5 -17 -10 -15 9 3 24 8 6 20 8 26 4 8 -4 9 -3 5 4 -9
16 42 47 73 44 23 -1 24 -1 6 7 -11 5 -18 11 -15 12 3 2 109 5 235 8 l230 6 6
-415 c5 -384 7 -421 27 -494z m-3651 879 c0 -8 -4 -12 -9 -9 -5 3 -6 10 -3 15
9 13 12 11 12 -6z m52 3 c-4 -34 2 -59 13 -52 7 4 8 3 4 -4 -4 -7 -2 -12 5
-12 8 0 7 -4 -3 -12 -22 -17 -28 -54 -9 -50 12 3 12 0 1 -12 -11 -14 -9 -16
16 -17 l29 -2 -27 -4 c-16 -2 -28 -10 -28 -16 0 -7 -4 -6 -10 3 -8 12 -11 13
-19 1 -5 -8 -11 -9 -15 -3 -3 6 -15 8 -26 5 -14 -4 -20 0 -20 11 0 18 21 21
36 6 14 -14 41 -3 41 15 0 12 -3 12 -15 2 -12 -9 -16 -9 -19 0 -2 7 -11 9 -20
6 -11 -4 -14 -2 -11 8 3 9 17 13 36 12 22 -1 32 3 32 13 0 8 -4 14 -10 14 -32
0 -62 18 -54 32 4 7 10 5 16 -6 5 -9 14 -14 19 -10 5 3 17 0 26 -8 14 -11 13
-8 -1 15 -10 15 -26 27 -35 28 -12 0 -11 2 4 8 11 5 21 13 21 20 2 19 4 21 14
21 6 0 10 -6 9 -12z m294 -5 c-3 -7 2 -13 10 -13 8 0 18 7 21 16 3 8 11 12 17
8 8 -4 7 -9 -2 -15 -10 -6 -10 -9 -2 -9 7 0 10 -6 7 -14 -4 -12 -10 -11 -35 1
-23 11 -34 12 -42 4 -15 -15 -30 -14 -20 2 4 6 8 15 9 20 2 12 3 13 23 13 11
0 17 -5 14 -13z m161 9 c-5 -4 -12 -11 -15 -15 -3 -5 -9 -2 -12 5 -3 9 3 14
15 15 11 1 16 -1 12 -5z m-535 -16 c9 -11 9 -16 -1 -22 -7 -4 -10 -4 -6 1 4 4
3 14 -3 22 -6 7 -9 13 -6 13 2 0 10 -6 16 -14z m591 10 c0 -11 -19 -15 -25 -6
-3 5 1 10 9 10 9 0 16 -2 16 -4z m2380 -8 c0 -7 12 -21 25 -31 22 -15 25 -16
25 -2 0 8 4 15 10 15 5 0 7 7 4 15 -5 11 1 15 18 15 38 0 38 -7 -3 -50 -49
-51 -114 -186 -129 -267 -8 -38 -11 -112 -8 -190 4 -107 10 -142 33 -213 55
-162 182 -310 326 -381 131 -65 164 -72 366 -73 l182 -2 66 -65 c36 -35 70
-65 75 -67 15 -5 12 -22 -2 -17 -7 2 -263 6 -568 9 l-555 5 -31 68 c-72 155
-68 117 -71 659 -3 350 0 500 8 520 6 16 13 24 16 17 3 -8 11 -8 31 2 19 10
30 11 39 3 9 -7 13 -7 13 1 0 12 -11 14 -50 11 -14 -1 -22 1 -19 4 4 4 35 8
70 10 35 2 58 1 51 -1 -6 -3 -10 -9 -7 -13 7 -11 65 8 65 21 0 14 20 11 20 -3z
m-2816 -29 c-4 -7 -44 -19 -44 -13 0 13 36 39 42 30 4 -6 5 -13 2 -17z m-165
-16 c2 -1 -5 -1 -16 0 -11 0 -20 7 -20 14 0 10 4 10 16 1 9 -7 18 -13 20 -15z
m469 5 c9 -9 12 -9 12 0 0 7 5 12 11 12 6 0 9 -7 5 -15 -3 -9 0 -15 9 -15 7 0
17 -5 20 -11 4 -5 -10 -3 -32 6 -40 17 -65 35 -47 35 6 0 15 -5 22 -12z m-110
-11 c-9 -7 -16 -20 -16 -28 2 -36 -3 -48 -17 -43 -13 5 -13 8 1 21 11 12 12
18 3 29 -9 11 -6 16 12 23 33 13 37 13 17 -2z m106 -28 c-3 -5 -11 -9 -19 -9
-8 0 -16 4 -19 9 -3 5 5 9 19 9 14 0 22 -4 19 -9z m-444 -9 c0 -5 -4 -10 -10
-10 -5 0 -10 5 -10 10 0 6 5 10 10 10 6 0 10 -4 10 -10z m495 0 c3 -5 1 -10
-4 -10 -6 0 -11 5 -11 10 0 6 2 10 4 10 3 0 8 -4 11 -10z m-535 -30 c0 -10 -3
-21 -7 -23 -5 -3 -8 8 -8 23 0 15 3 26 8 23 4 -2 7 -13 7 -23z m148 18 c15
-15 15 -28 1 -28 -5 0 -7 5 -4 10 3 6 -1 10 -9 10 -9 0 -16 5 -16 10 0 14 13
13 28 -2z m272 -14 c0 -8 -4 -13 -9 -9 -5 3 -12 1 -16 -4 -3 -5 1 -14 10 -18
13 -8 11 -15 -12 -51 -24 -36 -29 -40 -42 -28 -12 13 -16 12 -32 -7 -10 -12
-18 -16 -19 -9 0 6 4 12 10 12 5 0 7 7 4 15 -8 21 -24 19 -25 -2 0 -17 -1 -17
-7 -1 -7 17 -9 16 -40 -2 -17 -11 -32 -15 -32 -10 0 6 7 13 16 17 13 5 13 7 2
14 -9 6 -5 9 14 9 15 0 30 5 33 10 4 6 12 4 21 -5 17 -17 39 -21 29 -5 -7 11
-3 12 19 4 8 -3 12 -12 9 -20 -8 -21 6 -17 28 9 24 29 24 40 -2 27 -16 -9 -26
-8 -46 5 -14 9 -34 15 -44 12 -10 -3 -17 -1 -13 4 7 12 54 11 54 -1 0 -14 20
-8 42 13 20 19 24 32 6 21 -6 -4 -8 -3 -5 2 9 16 47 14 47 -2z m36 -41 c-11
-11 -17 4 -9 23 7 18 8 18 11 1 2 -10 1 -21 -2 -24z m-262 -15 c-6 -21 -5 -22
11 -8 17 14 17 14 4 -8 -8 -12 -15 -18 -17 -13 -2 5 -11 7 -21 4 -10 -2 -21 2
-24 10 -3 7 1 14 9 14 7 0 10 -5 7 -10 -3 -6 -1 -7 5 -3 7 4 12 14 12 22 0 8
5 14 11 14 6 0 8 -9 3 -22z m285 -14 c-6 -8 -17 -14 -23 -14 -6 0 -3 5 7 11 9
6 14 15 11 21 -4 7 -2 8 5 4 9 -6 9 -11 0 -22z m-469 12 c0 -3 -4 -8 -10 -11
-5 -3 -10 -1 -10 4 0 6 5 11 10 11 6 0 10 -2 10 -4z m51 -26 c14 -11 18 -19
11 -20 -7 0 -11 -4 -8 -9 8 -13 -36 0 -51 14 -9 9 -9 15 0 24 15 15 21 14 48
-9z m44 -1 c11 -17 -1 -21 -15 -4 -8 9 -8 15 -2 15 6 0 14 -5 17 -11z m1435
-10 c0 -6 -4 -7 -10 -4 -5 3 -10 11 -10 16 0 6 5 7 10 4 6 -3 10 -11 10 -16z
m-1375 -17 c3 -7 10 -10 17 -6 7 4 10 3 5 -1 -4 -5 -18 -10 -30 -11 -12 -2
-16 0 -8 3 10 4 8 9 -10 19 -24 13 -24 13 -2 11 12 -1 25 -7 28 -15z m295 8
c8 -5 11 -10 5 -10 -5 0 -17 5 -25 10 -8 5 -10 10 -5 10 6 0 17 -5 25 -10z
m-465 -10 c3 -6 -1 -7 -9 -4 -18 7 -21 14 -7 14 6 0 13 -4 16 -10z m135 -4 c0
-3 -4 -8 -10 -11 -5 -3 -10 -1 -10 4 0 6 5 11 10 11 6 0 10 -2 10 -4z m377 -2
c-3 -3 -12 -4 -19 -1 -8 3 -5 6 6 6 11 1 17 -2 13 -5z m-399 -39 c17 -36 14
-54 -3 -31 -8 11 -15 15 -15 9 0 -6 -8 -14 -17 -17 -10 -4 -14 -4 -10 0 4 4 2
13 -4 20 -7 9 -4 14 13 20 22 7 22 7 3 15 -20 7 -20 8 1 8 13 1 25 -9 32 -24z
m-76 -43 c2 -21 8 -26 23 -24 16 2 17 1 5 -7 -8 -6 -10 -11 -5 -11 11 0 -16
-20 -28 -20 -5 0 -7 8 -6 18 3 32 -1 36 -16 16 -13 -17 -13 -16 -3 13 10 28 9
35 -7 54 l-20 22 27 -17 c16 -10 28 -28 30 -44z m423 48 c3 -5 -1 -10 -10 -10
-9 0 -13 5 -10 10 3 6 8 10 10 10 2 0 7 -4 10 -10z m-300 -30 c3 -5 2 -10 -4
-10 -5 0 -13 5 -16 10 -3 6 -2 10 4 10 5 0 13 -4 16 -10z m229 1 c3 -5 -1 -11
-9 -14 -9 -4 -12 -1 -8 9 6 16 10 17 17 5z m-70 -13 c-3 -4 -9 -8 -15 -8 -5 0
-9 4 -9 8 0 5 7 9 15 9 8 0 12 -4 9 -9z m-324 -8 c0 -5 -5 -10 -11 -10 -5 0
-7 5 -4 10 3 6 8 10 11 10 2 0 4 -4 4 -10z m246 -5 c19 -19 14 -19 -22 0 -21
11 -24 15 -11 15 10 0 25 -7 33 -15z m4279 -19 c56 -37 77 -130 49 -222 -9
-32 -17 -63 -15 -67 1 -5 -3 -6 -8 -3 -6 4 -5 19 4 39 47 114 8 232 -86 257
-52 14 -107 -5 -137 -50 -20 -29 -23 -30 -17 -10 23 79 131 108 210 56z
m-4355 14 c0 -5 -7 -7 -15 -4 -8 4 -15 8 -15 10 0 2 7 4 15 4 8 0 15 -4 15
-10z m-55 -10 c3 -5 -1 -10 -9 -10 -9 0 -16 5 -16 10 0 6 4 10 9 10 6 0 13 -4
16 -10z m3832 -2 c6 15 23 6 23 -14 0 -22 -48 -17 -60 6 -10 20 -10 20 11 8
17 -10 23 -10 26 0z m-3787 -25 c0 -12 -3 -13 -13 -4 -8 6 -18 7 -23 3 -4 -4
-2 1 5 10 15 20 31 15 31 -9z m40 17 c0 -5 -4 -10 -10 -10 -5 0 -10 5 -10 10
0 6 5 10 10 10 6 0 10 -4 10 -10z m-106 -36 c3 -8 2 -12 -4 -9 -6 3 -10 10
-10 16 0 14 7 11 14 -7z m181 7 c3 -5 2 -12 -3 -15 -5 -3 -9 1 -9 9 0 17 3 19
12 6z m-75 -21 c0 -5 -7 -7 -15 -4 -8 4 -12 10 -9 15 6 11 24 2 24 -11z m-136
-6 c3 -8 2 -13 -3 -10 -5 3 -11 -4 -14 -16 -4 -12 -9 -20 -12 -16 -5 5 14 58
21 58 1 0 5 -7 8 -16z m83 -8 c0 -8 -10 -13 -24 -12 -29 1 -29 4 0 16 12 5 22
9 23 9 0 1 1 -5 1 -13z m40 -28 c-3 -8 -6 -5 -6 6 -1 11 2 17 5 13 3 -3 4 -12
1 -19z m-67 -3 c0 -2 -9 -9 -19 -15 -14 -7 -22 -7 -27 2 -4 6 -3 8 2 5 6 -3
16 -2 24 4 17 10 20 11 20 4z m7160 -25 c0 -5 -8 -10 -17 -10 -15 0 -16 -2 -3
-10 13 -8 16 -50 18 -251 l4 -242 -724 7 c-398 3 -772 9 -832 13 l-110 6 66
63 c83 78 208 166 226 159 7 -2 11 -1 7 4 -10 17 191 127 311 172 97 36 215
70 289 84 87 16 765 21 765 5z m-2968 -34 c2 -19 0 -32 -4 -30 -8 5 -12 64 -4
64 2 0 6 -15 8 -34z m-4165 -58 c-3 -8 -6 -5 -6 6 -1 11 2 17 5 13 3 -3 4 -12
1 -19z m4682 4 c19 -9 43 -28 53 -42 22 -31 35 -90 19 -90 -6 0 -11 11 -11 24
0 29 -33 72 -70 91 -67 34 -162 5 -226 -68 -34 -39 -35 -40 -20 -10 29 57 119
112 186 113 19 0 50 -8 69 -18z m-494 -28 c8 -20 19 -33 25 -29 6 4 10 3 9 -2
-4 -16 13 -43 24 -36 6 3 7 1 3 -5 -7 -11 31 -15 125 -16 10 0 15 -5 12 -13
-3 -7 -1 -13 5 -13 22 0 44 -71 38 -124 -4 -28 -10 -56 -14 -62 -12 -19 -50
-34 -85 -34 -41 0 -144 45 -127 55 8 5 8 10 0 20 -15 19 -9 97 8 111 12 8 8
15 -18 37 -17 15 -37 24 -42 21 -6 -4 -8 -2 -5 4 4 6 -12 19 -37 32 -120 58
-217 22 -235 -86 l-9 -49 -1 47 c-1 57 29 98 91 123 67 26 150 1 231 -71 20
-19 41 -34 46 -34 23 0 18 21 -13 61 -45 60 -65 99 -51 99 3 0 11 -16 20 -36z
m-41 -10 c7 -19 2 -18 -19 6 -16 17 -16 20 -3 15 9 -4 19 -13 22 -21z m-4171
9 c-7 -2 -19 -2 -25 0 -7 3 -2 5 12 5 14 0 19 -2 13 -5z m525 0 c-49 -2 -127
-2 -175 0 -49 1 -9 3 87 3 96 0 136 -2 88 -3z m185 0 c-13 -2 -33 -2 -45 0
-13 2 -3 4 22 4 25 0 35 -2 23 -4z m325 0 c-15 -2 -42 -2 -60 0 -18 2 -6 4 27
4 33 0 48 -2 33 -4z m125 0 c-13 -2 -33 -2 -45 0 -13 2 -3 4 22 4 25 0 35 -2
23 -4z m150 0 c-13 -2 -33 -2 -45 0 -13 2 -3 4 22 4 25 0 35 -2 23 -4z m240
-10 c-7 -2 -21 -2 -30 0 -10 3 -4 5 12 5 17 0 24 -2 18 -5z m45 -52 c9 -5 22
-8 27 -8 6 1 11 -74 13 -205 l2 -208 -494 0 -494 0 7 33 c21 89 118 207 159
192 7 -3 11 -1 8 4 -9 14 22 22 102 28 98 8 91 28 -9 27 -89 0 -139 -23 -205
-90 -41 -43 -84 -131 -84 -174 0 -20 -9 -20 -386 -20 l-386 0 4 156 c2 86 6
158 11 161 4 2 4 16 1 30 -4 16 -2 28 7 34 10 6 11 9 2 9 -7 0 -13 10 -13 23
0 16 3 18 9 8 6 -9 11 -10 15 -2 5 7 185 11 588 11 320 0 584 3 587 5 9 9 511
-4 529 -14z m126 -45 c114 -64 217 -176 266 -290 38 -90 44 -86 -155 -86
l-175 0 0 189 c0 104 -3 196 -6 205 -9 23 2 20 70 -18z m2241 -146 c3 -6 -1
-7 -9 -4 -18 7 -21 14 -7 14 6 0 13 -4 16 -10z m40 -28 c-3 -3 -11 0 -18 7 -9
10 -8 11 6 5 10 -3 15 -9 12 -12z m73 -9 c-10 -2 -26 -2 -35 0 -10 3 -2 5 17
5 19 0 27 -2 18 -5z m597 -163 c4 -24 1 -50 -9 -74 -18 -43 -29 -49 -13 -6 13
33 -3 130 -25 160 -7 9 -1 3 14 -13 15 -16 30 -47 33 -67z m-308 58 c-3 -7 -5
-2 -5 12 0 14 2 19 5 13 2 -7 2 -19 0 -25z m1676 -14 c279 -4 507 -11 507 -15
0 -9 -15 -13 -85 -24 -49 -8 -186 -53 -202 -67 -9 -7 -13 -7 -13 1 0 6 -4 11
-10 11 -5 0 -7 -7 -3 -16 4 -11 2 -15 -7 -12 -7 2 -23 -5 -36 -16 -33 -31 -67
-54 -229 -157 -221 -141 -377 -335 -455 -568 -12 -36 -26 -105 -32 -153 l-11
-88 -165 0 -164 0 3 180 4 180 133 0 c111 0 132 2 132 15 0 13 -21 15 -131 15
l-131 0 5 59 c20 206 126 435 285 617 39 45 51 54 72 49 14 -2 253 -8 533 -11z
m1022 -17 c55 -2 -32 -4 -192 -5 -161 -1 -293 1 -293 6 0 6 235 6 485 -1z
m-547 -54 c-10 -2 -26 -2 -35 0 -10 3 -2 5 17 5 19 0 27 -2 18 -5z m-88 -13
c-20 -5 -57 -18 -84 -29 -48 -21 -64 -26 -54 -15 14 14 125 53 148 53 20 -1
18 -3 -10 -9z m-5804 -26 c-3 -9 -6 -108 -6 -220 l0 -204 -380 0 -379 0 -3
216 c-2 119 -1 218 1 220 2 2 177 4 389 4 346 0 384 -2 378 -16z m1014 -489
l0 -505 -64 0 -64 0 -7 98 c-4 53 -13 120 -21 148 -32 114 -125 229 -220 274
-86 40 -164 50 -396 50 l-217 0 -3 216 c-2 119 -1 218 1 220 2 2 226 4 498 4
l493 0 0 -505z m3310 171 c0 -15 -24 -28 -34 -19 -13 14 -5 33 14 33 11 0 20
-6 20 -14z m1590 -126 c0 -6 -74 -10 -202 -10 -143 -1 -214 -5 -240 -14 -43
-15 -49 -13 -15 6 29 17 119 25 305 26 96 1 152 -2 152 -8z m610 0 c0 -6 -104
-10 -291 -10 -191 0 -288 3 -284 10 4 6 112 10 291 10 183 0 284 -4 284 -10z
m-5960 -23 c88 -34 115 -51 162 -98 84 -85 129 -204 132 -347 l1 -86 -790 3
-790 2 -22 25 c-23 25 -23 30 -23 275 l0 250 643 -3 c583 -3 646 -5 687 -21z
m3783 -174 c-84 -2 -222 -2 -305 0 -84 1 -16 3 152 3 168 0 236 -2 153 -3z"/>
<path d="M7187 8035 c-3 -16 0 -24 7 -22 14 4 21 47 8 47 -5 0 -12 -11 -15
-25z"/>
<path d="M7415 8041 c-3 -8 -8 -11 -11 -8 -7 7 -34 -17 -34 -31 0 -5 8 -16 18
-23 15 -13 16 -12 3 4 -15 20 -8 31 25 41 19 6 21 3 18 -21 -4 -25 -3 -24 10
7 15 36 20 33 16 -10 -2 -21 0 -23 14 -10 10 7 13 16 9 19 -5 3 -8 15 -7 27 1
17 -4 21 -27 20 -16 -1 -31 -7 -34 -15z"/>
<path d="M7570 8053 c-31 -12 -40 -43 -12 -43 14 0 15 2 2 10 -12 8 -11 10 6
10 12 0 24 7 28 15 6 16 1 17 -24 8z"/>
<path d="M6670 8040 c0 -5 -7 -10 -17 -10 -9 0 -14 -3 -10 -6 8 -8 47 5 47 17
0 5 -4 9 -10 9 -5 0 -10 -4 -10 -10z"/>
<path d="M7490 8039 c0 -8 7 -23 15 -33 15 -19 15 -19 15 1 0 11 -7 26 -15 33
-12 10 -15 10 -15 -1z"/>
<path d="M6610 8020 c0 -5 -16 -8 -35 -5 -29 3 -33 2 -23 -9 7 -7 20 -13 28
-13 8 -1 29 -3 45 -6 17 -2 22 -2 12 0 -12 3 -16 10 -12 24 4 11 2 19 -4 19
-6 0 -11 -4 -11 -10z"/>
<path d="M7270 8020 c0 -5 5 -10 10 -10 6 0 10 5 10 10 0 6 -4 10 -10 10 -5 0
-10 -4 -10 -10z"/>
<path d="M6867 7998 c-3 -10 -2 -18 2 -18 3 0 11 8 18 18 9 15 8 19 -2 19 -8
0 -16 -9 -18 -19z"/>
<path d="M7115 8010 c3 -5 8 -10 11 -10 2 0 4 5 4 10 0 6 -5 10 -11 10 -5 0
-7 -4 -4 -10z"/>
<path d="M6505 8000 c-3 -5 -1 -10 4 -10 6 0 11 5 11 10 0 6 -2 10 -4 10 -3 0
-8 -4 -11 -10z"/>
<path d="M6980 8000 c0 -5 7 -10 15 -10 8 0 15 5 15 10 0 6 -7 10 -15 10 -8 0
-15 -4 -15 -10z"/>
<path d="M7312 8004 c9 -3 19 -15 22 -27 4 -18 4 -18 3 3 -1 17 -8 25 -22 27
-14 1 -15 0 -3 -3z"/>
<path d="M6942 7988 c5 -15 28 -23 28 -10 0 5 -7 13 -16 16 -10 4 -14 1 -12
-6z"/>
<path d="M6470 7986 c0 -2 7 -7 16 -10 8 -3 12 -2 9 4 -6 10 -25 14 -25 6z"/>
<path d="M6896 7982 c-3 -5 1 -9 9 -9 8 0 12 4 9 9 -3 4 -7 8 -9 8 -2 0 -6 -4
-9 -8z"/>
<path d="M7100 7975 c0 -8 2 -15 4 -15 2 0 6 7 10 15 3 8 1 15 -4 15 -6 0 -10
-7 -10 -15z"/>
<path d="M6711 7963 c-1 -17 16 -25 25 -12 4 7 3 9 -4 5 -5 -3 -13 0 -15 6 -4
9 -6 10 -6 1z"/>
<path d="M6750 7945 c-8 -9 -8 -15 -2 -15 12 0 26 19 19 26 -2 2 -10 -2 -17
-11z"/>
<path d="M6796 7949 c3 -5 9 -7 14 -4 5 3 13 -3 19 -12 6 -10 11 -13 11 -6 0
13 -17 26 -38 29 -6 1 -10 -2 -6 -7z"/>
<path d="M6457 7939 c7 -7 15 -10 18 -7 3 3 -2 9 -12 12 -14 6 -15 5 -6 -5z"/>
<path d="M7460 7940 c0 -5 7 -7 15 -4 8 4 15 8 15 10 0 2 -7 4 -15 4 -8 0 -15
-4 -15 -10z"/>
<path d="M7400 7931 c0 -5 5 -13 10 -16 6 -3 10 -2 10 4 0 5 -4 13 -10 16 -5
3 -10 2 -10 -4z"/>
<path d="M7277 7913 c-14 -13 -7 -25 7 -14 11 9 20 10 35 1 12 -6 21 -7 21 -1
0 17 -50 28 -63 14z"/>
<path d="M6256 7897 c3 -10 9 -15 12 -12 3 3 0 11 -7 18 -10 9 -11 8 -5 -6z"/>
<path d="M7975 7880 c4 -6 11 -8 16 -5 14 9 11 15 -7 15 -8 0 -12 -5 -9 -10z"/>
<path d="M9101 7836 c-19 -23 -9 -69 17 -82 53 -26 100 22 68 71 -19 28 -66
34 -85 11z m79 -16 c0 -5 -5 -10 -11 -10 -5 0 -7 5 -4 10 3 6 8 10 11 10 2 0
4 -4 4 -10z"/>
<path d="M10097 7573 c-13 -13 -7 -21 13 -16 11 3 17 9 14 14 -6 11 -18 12
-27 2z"/>
<path d="M9337 7243 c-64 -10 -147 -37 -147 -47 0 -2 26 4 58 14 87 27 114 29
437 31 340 3 326 7 -33 11 -149 2 -271 -1 -315 -9z"/>
<path d="M10660 6875 c0 -22 4 -26 23 -23 14 2 22 10 22 23 0 13 -8 21 -22 23
-19 3 -23 -1 -23 -23z"/>
<path d="M9840 6597 c41 -41 186 -135 279 -180 89 -42 263 -96 310 -97 21 0 8
10 -20 15 -192 37 -315 91 -489 215 -78 56 -102 71 -80 47z"/>
<path d="M8371 6305 c-2 -47 61 -258 104 -350 167 -359 442 -600 805 -706 114
-33 179 -40 450 -49 177 -5 288 -13 335 -24 123 -27 122 -27 104 -17 -54 33
-264 60 -479 62 -192 1 -275 10 -400 44 -30 9 -62 17 -70 19 -8 3 -15 5 -15 6
0 1 -7 3 -16 5 -40 8 -183 82 -271 142 -116 78 -237 201 -329 336 -90 133
-123 209 -184 432 -18 66 -34 111 -34 100z"/>
<path d="M10573 6313 c20 -2 54 -2 75 0 20 2 3 4 -38 4 -41 0 -58 -2 -37 -4z"/>
<path d="M11477 6313 c105 -2 281 -2 390 0 109 1 23 2 -192 2 -214 0 -304 -1
-198 -2z"/>
<path d="M9472 6270 c-10 -17 -10 -21 3 -27 21 -7 39 11 32 31 -8 22 -20 20
-35 -4z"/>
<path d="M11787 6120 c78 -4 165 -13 195 -20 70 -17 179 -63 242 -101 28 -18
45 -25 37 -16 -16 20 -121 77 -181 100 -95 35 -173 47 -305 45 l-130 -1 142
-7z"/>
<path d="M12452 5802 c20 -22 44 -52 54 -66 9 -15 19 -25 21 -22 6 6 -85 120
-101 125 -6 2 6 -14 26 -37z"/>
<path d="M12540 5691 c0 -6 4 -13 10 -16 6 -3 7 1 4 9 -7 18 -14 21 -14 7z"/>
<path d="M9788 5623 c6 -2 18 -2 25 0 6 3 1 5 -13 5 -14 0 -19 -2 -12 -5z"/>
<path d="M12580 5618 c0 -4 13 -39 29 -80 16 -40 33 -86 39 -103 9 -26 11 -27
11 -7 1 13 -13 58 -30 100 -29 69 -49 107 -49 90z"/>
<path d="M9883 5603 c9 -2 25 -2 35 0 9 3 1 5 -18 5 -19 0 -27 -2 -17 -5z"/>
<path d="M9958 5593 c12 -2 32 -2 45 0 12 2 2 4 -23 4 -25 0 -35 -2 -22 -4z"/>
<path d="M10133 5583 c59 -2 155 -2 215 0 59 1 10 3 -108 3 -118 0 -167 -2
-107 -3z"/>
<path d="M10495 5570 c17 -4 39 -8 50 -8 l20 -1 -20 9 c-11 5 -33 8 -50 8
l-30 0 30 -8z"/>
<path d="M10593 5553 c9 -2 23 -2 30 0 6 3 -1 5 -18 5 -16 0 -22 -2 -12 -5z"/>
<path d="M10198 5143 c7 -3 16 -2 19 1 4 3 -2 6 -13 5 -11 0 -14 -3 -6 -6z"/>
<path d="M9997 4893 c-15 -14 -7 -43 12 -43 26 0 36 17 21 35 -14 16 -23 19
-33 8z"/>
<path d="M9408 4541 c-69 -22 -149 -72 -200 -124 -52 -52 -48 -61 5 -10 58 56
161 111 243 128 78 17 401 20 570 6 106 -9 179 -35 247 -88 17 -14 13 -7 -11
16 -24 22 -69 50 -100 63 -55 22 -70 23 -377 25 -289 2 -326 1 -377 -16z"/>
<path d="M9674 4322 c-22 -14 -27 -53 -8 -73 33 -37 84 -18 84 31 0 14 -5 31
-12 38 -13 13 -47 16 -64 4z"/>
<path d="M5435 8170 c21 -24 26 -25 19 -6 -3 8 -13 17 -22 21 -13 5 -13 2 3
-15z"/>
<path d="M5590 8181 c0 -6 4 -13 10 -16 6 -3 7 1 4 9 -7 18 -14 21 -14 7z"/>
<path d="M5560 8157 c0 -11 -7 -15 -20 -12 -11 2 -18 0 -15 -5 3 -5 14 -7 25
-5 12 2 18 0 15 -6 -4 -5 -15 -9 -25 -9 -10 0 -21 -3 -23 -7 -3 -5 8 -8 24 -8
16 0 29 5 29 12 0 6 4 13 9 15 5 2 3 12 -5 22 -12 17 -14 17 -14 3z"/>
<path d="M5767 8150 c3 -11 9 -20 14 -20 11 0 11 3 3 24 -9 23 -23 20 -17 -4z"/>
<path d="M5916 8152 c-5 -9 -20 -12 -37 -10 -22 3 -35 -2 -56 -24 -15 -15 -22
-28 -16 -28 6 0 21 12 33 28 l21 27 -6 -25 c-5 -21 -4 -22 5 -7 16 25 30 21
30 -9 0 -23 2 -25 15 -14 12 10 13 15 4 20 -6 4 -8 13 -5 19 5 8 14 7 29 -4
27 -19 37 -19 37 1 0 8 -4 12 -10 9 -5 -3 -10 0 -10 7 0 10 -2 10 -9 -1 -7
-11 -10 -10 -13 5 -3 15 -5 16 -12 6z"/>
<path d="M5654 8129 c0 -10 6 -19 13 -19 7 0 13 4 13 9 0 5 -6 13 -13 19 -10
8 -13 6 -13 -9z"/>
<path d="M5406 8124 c-3 -9 -6 -23 -5 -32 0 -11 2 -12 6 -4 2 6 10 9 16 5 8
-4 7 -1 -1 9 -10 13 -10 17 3 22 8 3 21 3 29 0 8 -3 16 -2 19 3 3 4 -10 9 -28
10 -22 2 -35 -2 -39 -13z"/>
<path d="M5600 8120 c0 -5 9 -10 20 -10 11 0 20 5 20 10 0 6 -9 10 -20 10 -11
0 -20 -4 -20 -10z"/>
<path d="M5738 8112 c-4 -15 -1 -18 14 -14 10 2 17 9 15 15 -6 19 -24 18 -29
-1z"/>
<path d="M5450 8106 c0 -2 7 -7 16 -10 8 -3 12 -2 9 4 -6 10 -25 14 -25 6z"/>
<path d="M5930 8095 c0 -13 20 -35 32 -35 4 0 8 9 8 20 0 11 -4 20 -10 20 -5
0 -10 -6 -10 -12 0 -9 -4 -8 -10 2 -5 8 -10 10 -10 5z"/>
<path d="M5827 8077 c-3 -8 -1 -20 4 -28 7 -11 9 -11 9 4 0 9 5 17 10 17 6 0
10 5 10 10 0 15 -27 12 -33 -3z"/>
<path d="M5551 8060 c-13 -11 -19 -20 -14 -20 6 0 18 9 28 20 23 25 17 25 -14
0z"/>
<path d="M5870 8061 c0 -13 25 -20 39 -11 9 5 9 10 3 14 -6 3 -13 0 -15 -6 -4
-10 -6 -10 -6 0 -1 14 -21 17 -21 3z"/>
<path d="M6150 8035 c0 -19 18 -38 29 -31 6 4 11 12 11 17 0 6 -5 7 -11 3 -6
-3 -15 0 -20 7 -5 8 -9 10 -9 4z"/>
<path d="M5830 8013 c-24 -12 -24 -13 -3 -13 12 0 25 5 28 11 11 16 2 17 -25
2z"/>
<path d="M5975 7999 c-4 -6 -5 -12 -2 -15 2 -3 7 2 10 11 7 17 1 20 -8 4z"/>
<path d="M6056 7988 c3 -5 9 -6 14 -3 4 3 11 -1 13 -7 4 -8 6 -7 6 4 1 11 -6
16 -18 15 -11 0 -17 -5 -15 -9z"/>
<path d="M6016 7968 c3 -5 10 -6 15 -3 13 9 11 12 -6 12 -8 0 -12 -4 -9 -9z"/>
<path d="M6058 7949 c-10 -5 -18 -15 -18 -22 0 -8 3 -7 9 2 5 7 13 11 18 8 5
-3 10 0 10 8 0 8 -1 15 -1 15 -1 0 -9 -5 -18 -11z"/>
<path d="M6105 7950 c3 -5 11 -10 16 -10 6 0 7 5 4 10 -3 6 -11 10 -16 10 -6
0 -7 -4 -4 -10z"/>
<path d="M6078 7903 c7 -3 16 -2 19 1 4 3 -2 6 -13 5 -11 0 -14 -3 -6 -6z"/>
<path d="M5920 7870 c0 -5 7 -10 15 -10 8 0 15 5 15 10 0 6 -7 10 -15 10 -8 0
-15 -4 -15 -10z"/>
<path d="M5882 7103 c-40 -16 24 -23 219 -23 188 0 219 2 219 15 0 13 -30 15
-212 14 -117 0 -219 -3 -226 -6z"/>
<path d="M7346 6833 c-11 -11 -6 -23 9 -23 8 0 15 4 15 9 0 13 -16 22 -24 14z"/>
<path d="M5646 6203 c-6 -14 -5 -15 5 -6 7 7 10 15 7 18 -3 3 -9 -2 -12 -12z"/>
<path d="M5913 6213 c9 -2 25 -2 35 0 9 3 1 5 -18 5 -19 0 -27 -2 -17 -5z"/>
<path d="M6884 6156 c-3 -7 -1 -29 4 -47 l10 -34 1 48 c1 47 -5 60 -15 33z"/>
<path d="M6902 5740 c0 -14 2 -19 5 -12 2 6 2 18 0 25 -3 6 -5 1 -5 -13z"/>
<path d="M6910 5669 c0 -5 5 -7 10 -4 6 3 10 8 10 11 0 2 -4 4 -10 4 -5 0 -10
-5 -10 -11z"/>
<path d="M6605 5451 c-7 -13 17 -24 40 -19 9 1 16 8 16 13 0 14 -48 19 -56 6z"/>
<path d="M7004 5419 c-3 -6 0 -15 7 -20 22 -14 36 -10 17 5 -10 7 -15 16 -11
19 3 4 4 7 0 7 -3 0 -9 -5 -13 -11z"/>
<path d="M7060 5326 c0 -2 7 -7 16 -10 8 -3 12 -2 9 4 -6 10 -25 14 -25 6z"/>
<path d="M7080 5296 c0 -2 7 -6 15 -10 8 -3 15 -1 15 4 0 6 -7 10 -15 10 -8 0
-15 -2 -15 -4z"/>
<path d="M7120 5263 c0 -10 91 -95 96 -90 2 2 -19 25 -46 51 -28 27 -50 44
-50 39z"/>
<path d="M7237 5149 c3 -11 8 -18 11 -15 9 10 43 -15 36 -26 -5 -7 -2 -8 6 -3
7 4 16 2 21 -6 5 -8 9 -9 9 -3 0 5 -20 24 -44 41 -37 26 -43 28 -39 12z"/>
<path d="M7330 5092 c0 -8 61 -34 67 -29 1 2 -13 11 -32 20 -19 9 -35 13 -35
9z"/>
<path d="M7438 5038 c5 -5 16 -8 23 -6 8 3 3 7 -10 11 -17 4 -21 3 -13 -5z"/>
<path d="M8283 4334 c-8 -21 13 -42 28 -27 13 13 5 43 -11 43 -6 0 -13 -7 -17
-16z"/>
<path d="M8470 4075 c-10 -11 -10 -19 -2 -27 15 -15 44 -2 40 19 -4 23 -22 27
-38 8z"/>
<path d="M5638 3753 c7 -3 16 -2 19 1 4 3 -2 6 -13 5 -11 0 -14 -3 -6 -6z"/>
<path d="M5698 3750 c-2 -6 -13 -12 -26 -13 -25 -1 -31 -27 -6 -27 9 0 12 -5
8 -11 -4 -7 -1 -10 7 -7 8 3 13 13 13 22 -2 19 12 22 19 4 2 -7 6 -1 9 15 3
18 1 27 -8 27 -7 0 -14 -5 -16 -10z"/>
<path d="M7233 3664 c-7 -18 11 -39 26 -30 17 11 13 46 -4 46 -9 0 -18 -7 -22
-16z"/>
<path d="M8269 2383 c10 -20 94 -119 120 -143 45 -42 111 -90 151 -110 101
-51 234 -109 215 -94 -11 9 -67 39 -125 67 -58 27 -123 62 -145 78 -66 45
-147 128 -195 197 -17 26 -35 30 -21 5z"/>
<path d="M7539 2283 c-1 -60 -3 -142 -5 -183 -1 -41 1 -102 6 -135 5 -41 8 15
9 183 0 133 -1 242 -4 242 -3 0 -6 -48 -6 -107z"/>
<path d="M9214 2169 c-10 -17 13 -36 27 -22 12 12 4 33 -11 33 -5 0 -12 -5
-16 -11z"/>
<path d="M8853 3584 c-7 -19 11 -39 26 -30 16 10 13 33 -4 40 -9 3 -18 -1 -22
-10z"/>
<path d="M8697 3183 c-11 -11 -8 -40 6 -51 8 -6 21 -6 37 0 20 7 22 11 10 18
-12 8 -12 10 -1 10 11 0 11 3 1 15 -13 16 -42 20 -53 8z"/>
<path d="M9086 2812 c-3 -5 1 -9 9 -9 8 0 12 4 9 9 -3 4 -7 8 -9 8 -2 0 -6 -4
-9 -8z"/>
<path d="M5767 3576 c-4 -10 -1 -13 9 -9 7 3 14 9 14 14 0 14 -17 10 -23 -5z"/>
<path d="M5420 3530 c0 -6 7 -13 15 -17 24 -9 27 1 5 15 -13 8 -20 8 -20 2z"/>
<path d="M12133 3243 c9 -2 25 -2 35 0 9 3 1 5 -18 5 -19 0 -27 -2 -17 -5z"/>
<path d="M11186 2895 c-3 -8 -1 -15 4 -15 6 0 10 7 10 15 0 8 -2 15 -4 15 -2
0 -6 -7 -10 -15z"/>
<path d="M11145 2881 c-3 -5 0 -13 6 -17 7 -4 9 -3 5 4 -3 5 0 13 6 15 9 4 10
6 1 6 -6 1 -14 -3 -18 -8z"/>
<path d="M5575 3060 c-3 -5 -1 -10 4 -10 6 0 11 5 11 10 0 6 -2 10 -4 10 -3 0
-8 -4 -11 -10z"/>
<path d="M7121 3034 c0 -11 3 -14 6 -6 3 7 2 16 -1 19 -3 4 -6 -2 -5 -13z"/>
<path d="M5457 3029 c7 -7 15 -10 18 -7 3 3 -2 9 -12 12 -14 6 -15 5 -6 -5z"/>
<path d="M11778 2713 c7 -3 16 -2 19 1 4 3 -2 6 -13 5 -11 0 -14 -3 -6 -6z"/>
<path d="M11810 2670 c0 -5 5 -10 10 -10 6 0 10 5 10 10 0 6 -4 10 -10 10 -5
0 -10 -4 -10 -10z"/>
<path d="M11236 2551 c-8 -12 15 -28 37 -28 11 0 16 6 12 14 -3 8 -5 17 -5 19
0 8 -39 4 -44 -5z"/>
<path d="M10700 1974 c83 -8 190 -8 190 -1 0 4 -51 6 -112 5 -62 -1 -97 -3
-78 -4z"/>
<path d="M6460 2450 c0 -6 27 -10 61 -10 37 0 58 4 54 10 -3 6 -31 10 -61 10
-30 0 -54 -4 -54 -10z"/>
</g>
</svg>
